<?xml version="1.0" encoding="utf-8"?>
<svg id="svg2" width="500" height="500" viewBox="50 -18 500 500" xmlns="http://www.w3.org/2000/svg">
  <g id="g3777" transform="matrix(0.310562, 0, 0, 0.313093, 65.338432, 89.154274)">
    <path d="M 188.5,633.06651 C 180.3166,631.05227 173.05351,625.11756 168.83728,617 L 166.5,612.5 166,554.5 165.5,496.5 107,496 48.5,495.5 43.887152,492.78822 C 38.891718,489.85153 34.072164,484.86649 31.2687,479.7365 29.642527,476.76081 29.5,472.39026 29.5,425.5 l 0,-51 129,0 129,0 0,129.5 0,129.5 -48,0.15246 c -26.4,0.0839 -49.35,-0.17982 -51,-0.58595 z" id="path3775" style="fill:#4accd5;fill-opacity:1"/>
    <path d="M 329.5048,491.86957 C 329.2165,491.11631 329.09747,465.3 329.2403,434.5 l 0.2597,-56 28.5,-0.61905 c 29.42725,-0.63919 32.61456,-1.03849 46.33562,-5.80495 34.68701,-12.04966 57.90628,-49.45367 55.30834,-89.09639 -2.67641,-40.84011 -26.75687,-70.03448 -64.86315,-78.63799 -9.62064,-2.17211 -29.83303,-2.21399 -39.42452,-0.0817 -34.50797,7.67156 -60.29155,32.62885 -68.9497,66.74006 -1.26152,4.97012 -1.76331,13.0314 -2.13194,34.25 -0.43219,24.87669 -0.65257,27.75464 -2.12838,27.79482 -9.15197,0.24917 -111.66251,-0.22773 -111.95562,-0.52084 -0.87462,-0.87462 -0.0764,-60.64494 0.91512,-68.52398 8.32346,-66.14175 50.53342,-124.97192 111.14195,-154.90423 30.10604,-14.868255 57.83965,-21.306461 92.25228,-21.41586 33.72407,-0.107211 62.15686,5.973054 90,19.24623 56.23181,26.80641 93.77914,75.75549 105.97257,138.15259 14.08031,72.05278 -7.57254,142.64513 -58.75619,191.55622 -29.72635,28.40648 -64.80079,46.03209 -106.48236,53.5095 -9.73711,1.74678 -17.13481,2.18922 -43.46952,2.59985 -26.28079,0.40978 -31.8256,0.25943 -32.2597,-0.87473 z" id="path3761" style="fill:#4accd5;fill-opacity:1"/>
  </g>
  <g id="g3781" style="fill:#000000" transform="matrix(0.310562, 0, 0, 0.313093, 65.338432, 89.154274)">
    <path d="m 763.5,554.05464 c -1.1,-0.45022 -2.9,-1.81894 -4,-3.0416 -1.96737,-2.18675 -2,-3.63069 -2,-88.51103 l 0,-86.28802 5.1108,-5.85699 c 10.794,-12.36995 29.84338,-23.83714 47.3892,-28.52696 6.98169,-1.86613 11.09006,-2.27259 23,-2.27548 17.03101,-0.004 22.91629,1.28462 36.5,7.99283 33.30811,16.44894 49.93958,55.10628 40.07768,93.15448 -7.35489,28.3759 -30.90987,49.50934 -61.03826,54.76329 C 843.20415,496.39556 833.69933,497 824.40419,497 810.26755,497 808.98955,496.84898 808.03518,495.06574 807.46583,494.0019 807,487.89732 807,481.5 c 0,-6.39732 0.46583,-12.5019 1.03518,-13.56574 0.95179,-1.77844 2.22613,-1.93426 15.8185,-1.93426 20.29221,0 28.42355,-2.50226 38.37255,-11.80838 18.28395,-17.1025 19.45625,-49.45467 2.46121,-67.92232 -9.843,-10.69589 -23.51332,-15.2091 -39.95072,-13.1896 -9.55024,1.17334 -21.82598,7.12373 -27.58447,13.37095 L 793,390.95531 l 0,80.82235 c 0,61.52849 -0.28646,81.1088 -1.2,82.02234 -1.38416,1.38416 -25.02069,1.59684 -28.3,0.25464 z" id="path3773" style="fill:#000000;fill-opacity:1"/>
    <path d="m 680.20863,495.47487 c -8.18142,-1.77655 -15.66848,-5.31938 -20.9307,-9.90427 -5.59135,-4.87166 -10.9567,-15.84893 -12.25375,-25.0706 -1.07444,-7.63899 -1.44115,-144.24981 -0.39454,-146.97724 0.78742,-2.05198 32.10154,-17.83989 33.96543,-17.12465 1.08727,0.41722 1.42147,5.07837 1.63569,22.81312 L 682.5,341.5 l 21.23593,0.26985 c 25.01734,0.31789 22.48416,-1.71877 22.05256,17.73015 l -0.28849,13 -21.5,0.55029 c -11.825,0.30266 -21.63604,0.64016 -21.80232,0.75 -0.16627,0.10984 -0.16627,18.31221 0,40.44971 0.28754,38.28203 0.40123,40.42113 2.3252,43.75 1.19797,2.07274 3.83305,4.41752 6.46189,5.75 4.17609,2.11674 5.65842,2.25 25.02712,2.25 14.67964,0 20.93249,0.34438 21.78811,1.2 0.8112,0.8112 1.2,5.44444 1.2,14.3 0,8.85556 -0.3888,13.4888 -1.2,14.3 -1.77033,1.77033 -49.17369,1.50272 -57.59137,-0.32513 z" id="path3771" style="fill:#000000;fill-opacity:1"/>
    <path d="m 1031.0767,494.41111 -3.0767,-2.5889 0,-101.19608 0,-101.19609 16.1206,-8.27574 c 8.8663,-4.55166 16.7413,-8.03754 17.5,-7.74641 1.1611,0.44556 1.3794,18.0858 1.3794,111.45374 0,100.22605 -0.1526,110.98293 -1.5818,111.53138 -0.87,0.33385 -7.3604,0.60699 -14.4233,0.60699 -12.3562,0 -12.9577,-0.0978 -15.9182,-2.58889 z" id="path3769" style="fill:#000000;fill-opacity:1"/>
    <path d="m 1101.3083,495.9904 c -5.526,-2.22589 -5.3432,0.64679 -5.0648,-79.57478 L 1096.5,342.5 l 17,0 17,0 0.2563,76.43709 c 0.2028,60.48817 -0.01,76.60352 -1,77.23469 -1.6995,1.07897 -25.6989,0.92596 -28.448,-0.18138 z" id="path3767" style="fill:#000000;fill-opacity:1"/>
    <path d="m 1169.1101,495.60449 c -5.1026,-2.82815 -5.0367,-1.99808 -5.0747,-63.90415 -0.029,-48.14804 0.2026,-58.25057 1.3897,-60.5 1.8731,-3.54908 12.8246,-14.08664 18.8155,-18.10431 7.3985,-4.96165 20.4829,-10.86864 29.2594,-13.20926 10.4679,-2.7917 29.7086,-3.04272 40,-0.52184 26.2843,6.43835 46.7543,26.75962 53.4918,53.10305 1.8732,7.32417 2.0082,11.06038 2.0082,55.58499 0,42.60381 -0.17,47.79828 -1.5818,48.34004 -3.0867,1.18447 -30.9536,0.67155 -32.2182,-0.59301 -0.8975,-0.89753 -1.2,-12.46548 -1.2,-45.89466 0,-41.68914 -0.1329,-45.12489 -1.9761,-51.09243 -5.1173,-16.56801 -17.5497,-26.50741 -34.472,-27.5596 -13.1887,-0.82003 -24.2289,2.9429 -33.6765,11.47823 l -3.8754,3.50118 0,53.44938 c 0,34.93167 -0.3586,54.11951 -1.0352,55.38364 -0.9448,1.7655 -2.1881,1.93117 -14.25,1.89882 -9.0401,-0.0242 -13.9698,-0.45389 -15.6047,-1.36007 z" id="path3765" style="fill:#000000;fill-opacity:1"/>
    <path d="m 1345.3083,495.9904 c -5.595,-2.25369 -5.3401,3.08647 -5.0631,-106.07225 L 1340.5,289.5 l 16.6914,-8.4753 c 9.1802,-4.66141 17.0552,-8.11159 17.5,-7.66708 0.4447,0.44452 1.0336,30.58341 1.3086,66.9753 l 0.5,66.16708 27.3153,-32.25 27.3154,-32.25 19.9346,0 c 16.5699,0 19.9347,0.24009 19.9347,1.42243 0,0.78233 -13.7483,17.03269 -30.5518,36.1119 -16.8034,19.07922 -30.4159,35.25725 -30.25,35.95118 0.166,0.69394 15.5497,18.48103 34.186,39.52687 18.6364,21.04584 33.9364,38.99022 34,39.87639 0.1024,1.42427 -2.2373,1.64265 -20.1627,1.88203 l -20.2785,0.27079 -2.2215,-2.42987 c -1.2218,-1.33643 -14.8215,-17.74302 -30.2215,-36.45909 -15.4,-18.71607 -28.3375,-34.05698 -28.75,-34.09092 -0.4125,-0.0339 -0.75,15.49287 -0.75,34.50403 0,21.9147 -0.3789,35.27368 -1.0352,36.5 -0.9461,1.76782 -2.1723,1.92881 -14.25,1.87087 -7.2681,-0.0349 -14.2011,-0.46065 -15.4065,-0.94621 z" id="path3763" style="fill:#000000;fill-opacity:1"/>
    <path d="m 951.75198,435.25 c -2.52614,-2.83745 -15.85215,-31.54657 -15.30497,-32.97251 0.40068,-1.04416 6.68043,-1.25336 31.27717,-1.04198 L 998.5,401.5 l 0.27497,16.92555 c 0.20911,12.87126 -0.0304,17.11936 -1,17.73469 -0.70123,0.44502 -10.99273,0.81603 -22.86998,0.82445 -19.31831,0.0137 -21.75927,-0.16919 -23.15301,-1.73469 z" id="path3759" style="fill:#000000;fill-opacity:1"/>
    <path d="m 1095.3059,306.50167 c -3.4086,-2.38741 -5.6184,-9.50483 -5.1144,-16.47236 0.5415,-7.48633 4.1643,-13.1181 11.261,-17.50565 4.2568,-2.63178 5.808,-3.01981 11.9691,-2.99396 7.8521,0.0329 13.0003,2.09761 17.7754,7.12872 7.3715,7.76685 7.8588,21.80036 1.0274,29.59158 -1.3458,1.53494 -3.5771,1.75 -18.1569,1.75 -13.1488,0 -17.0695,-0.31311 -18.7616,-1.49833 z" id="path2987" style="fill:#000000;fill-opacity:1"/>
  </g>
</svg>